<?xml version="1.0" encoding="UTF-8" standalone="no"?>
<svg
   xmlns:dc="http://purl.org/dc/elements/1.1/"
   xmlns:cc="http://creativecommons.org/ns#"
   xmlns:rdf="http://www.w3.org/1999/02/22-rdf-syntax-ns#"
   xmlns:svg="http://www.w3.org/2000/svg"
   xmlns="http://www.w3.org/2000/svg"
   xmlns:sodipodi="http://sodipodi.sourceforge.net/DTD/sodipodi-0.dtd"
   xmlns:inkscape="http://www.inkscape.org/namespaces/inkscape"
   viewBox="0 0 22 22"
   style="enable-background:new 0 0 512 512"
   id="svg2"
   version="1.1"
   inkscape:version="0.91 r13725"
   sodipodi:docname="vpn-success.svg">
  <metadata
     id="metadata10">
    <rdf:RDF>
      <cc:Work
         rdf:about="">
        <dc:format>image/svg+xml</dc:format>
        <dc:type
           rdf:resource="http://purl.org/dc/dcmitype/StillImage" />
        <dc:title></dc:title>
      </cc:Work>
    </rdf:RDF>
  </metadata>
  <defs
     id="defs8" />
  <sodipodi:namedview
     pagecolor="#ffffff"
     bordercolor="#666666"
     borderopacity="1"
     objecttolerance="10"
     gridtolerance="10"
     guidetolerance="10"
     inkscape:pageopacity="0"
     inkscape:pageshadow="2"
     inkscape:window-width="1600"
     inkscape:window-height="843"
     id="namedview6"
     showgrid="false"
     inkscape:zoom="30.341309"
     inkscape:cx="2.4282563"
     inkscape:cy="10.399497"
     inkscape:window-x="0"
     inkscape:window-y="33"
     inkscape:window-maximized="1"
     inkscape:current-layer="svg2" />
  <path
     d="m 12.939 11 c 0 1.026 -0.831 1.857 -1.857 1.857 -1.025 0 -1.857 -0.831 -1.857 -1.857 0 -1.025 0.831 -1.857 1.857 -1.857 1.025 0 1.857 0.831 1.857 1.857 z m 6.561 -0.303 c 0 0 -3.01 5.803 -8.49 5.803 c -5.086 0 -8.51 -5.803 -8.51 -5.803 0 0 3.15 -5.197 8.51 -5.197 5.45 0 8.49 5.197 8.49 5.197 m -5.117 0.303 c 0 -1.823 -1.478 -3.301 -3.301 -3.301 -1.823 0 -3.301 1.478 -3.301 3.301 0 1.823 1.478 3.301 3.301 3.301 1.823 0 3.301 -1.478 3.301 -3.301 z"
     style="fill:#81ef56;fill-opacity:0.58823532"
     id="path4" />
</svg>
